<svg width="170" height="40" viewBox="0 0 191 46" fill="none" xmlns="http://www.w3.org/2000/svg">
<path d="M8.75781 34H0.422363V3.76562H8.75781V18.1689C11.3333 16.1953 13.7339 14.0047 15.9595 11.5972C18.1991 9.18962 20.1237 6.5721 21.7334 3.74463H27.4233C25.9396 6.27816 24.2389 8.64372 22.3213 10.8413C20.4036 13.0389 18.318 15.0755 16.0645 16.9512L28.1372 34H19.4448L10.3535 21.1504C10.0876 21.3324 9.82161 21.5073 9.55566 21.6753C9.30371 21.8433 9.03776 22.0112 8.75781 22.1792V34ZM38.4883 3.8916C38.4883 4.4235 38.3833 4.92741 38.1733 5.40332C37.9774 5.87923 37.7044 6.29215 37.3545 6.64209C37.0046 6.99202 36.5916 7.27197 36.1157 7.48193C35.6398 7.6779 35.1359 7.77588 34.604 7.77588C34.0721 7.77588 33.5682 7.6779 33.0923 7.48193C32.6304 7.27197 32.2244 6.99202 31.8745 6.64209C31.5246 6.29215 31.2446 5.87923 31.0347 5.40332C30.8387 4.92741 30.7407 4.4235 30.7407 3.8916C30.7407 3.3597 30.8387 2.86279 31.0347 2.40088C31.2446 1.92497 31.5246 1.51204 31.8745 1.16211C32.2244 0.812174 32.6304 0.539225 33.0923 0.343262C33.5682 0.133301 34.0721 0.0283203 34.604 0.0283203C35.1359 0.0283203 35.6398 0.133301 36.1157 0.343262C36.5916 0.539225 37.0046 0.812174 37.3545 1.16211C37.7044 1.51204 37.9774 1.92497 38.1733 2.40088C38.3833 2.86279 38.4883 3.3597 38.4883 3.8916ZM38.1733 34H31.0557V9.77051H38.1733V34ZM69.9194 21.9062C69.9194 23.6699 69.6535 25.3216 69.1216 26.8613C68.5897 28.401 67.8198 29.7448 66.812 30.8926C65.8042 32.0264 64.5724 32.9222 63.1167 33.5801C61.661 34.238 60.0093 34.5669 58.1616 34.5669C57.2238 34.5669 56.328 34.4269 55.4741 34.147C54.6343 33.867 53.8574 33.4751 53.1436 32.9712C52.4437 32.4533 51.8208 31.8374 51.2749 31.1235C50.743 30.4097 50.3231 29.6118 50.0151 28.73L46.8657 34H44.1362V0.826172H51.2329V12.647C52.0728 11.4852 53.0806 10.6313 54.2563 10.0854C55.4461 9.53955 56.7479 9.2666 58.1616 9.2666C60.0093 9.2666 61.661 9.59554 63.1167 10.2534C64.5724 10.9113 65.8042 11.8071 66.812 12.9409C67.8198 14.0747 68.5897 15.4115 69.1216 16.9512C69.6535 18.4909 69.9194 20.1426 69.9194 21.9062ZM62.7178 21.9062C62.7178 21.2904 62.6828 20.6395 62.6128 19.9536C62.5568 19.2537 62.4518 18.5609 62.2979 17.875C62.1439 17.1891 61.9269 16.5312 61.647 15.9014C61.381 15.2715 61.0381 14.7186 60.6182 14.2427C60.1982 13.7528 59.6943 13.3678 59.1064 13.0879C58.5186 12.7939 57.8257 12.647 57.0278 12.647C56.3 12.647 55.6491 12.8009 55.0752 13.1089C54.5153 13.4028 54.0184 13.8018 53.5845 14.3057C53.1646 14.8096 52.8076 15.3835 52.5137 16.0273C52.2197 16.6712 51.9818 17.3361 51.7998 18.022C51.6178 18.7078 51.4849 19.3867 51.4009 20.0586C51.3169 20.7305 51.2749 21.3464 51.2749 21.9062C51.2749 22.5361 51.3029 23.201 51.3589 23.9009C51.4289 24.6007 51.5409 25.3006 51.6948 26.0005C51.8488 26.6864 52.0588 27.3442 52.3247 27.9741C52.6047 28.59 52.9546 29.1429 53.3745 29.6328C53.8084 30.1087 54.3193 30.4867 54.9072 30.7666C55.5091 31.0465 56.216 31.1865 57.0278 31.1865C57.8117 31.1865 58.4976 31.0465 59.0854 30.7666C59.6873 30.4727 60.1982 30.0877 60.6182 29.6118C61.0381 29.1219 61.381 28.562 61.647 27.9321C61.9269 27.2882 62.1439 26.6234 62.2979 25.9375C62.4518 25.2516 62.5568 24.5658 62.6128 23.8799C62.6828 23.18 62.7178 22.5221 62.7178 21.9062ZM100.112 21.8223C100.112 23.082 99.9438 24.2648 99.6079 25.3706C99.272 26.4764 98.8031 27.4982 98.2012 28.436C97.6133 29.3739 96.8994 30.2207 96.0596 30.9766C95.2197 31.7184 94.2959 32.3483 93.2881 32.8662C92.2943 33.3841 91.2235 33.783 90.0757 34.063C88.9419 34.3429 87.7731 34.4829 86.5693 34.4829C85.3656 34.4829 84.1968 34.3429 83.063 34.063C81.9292 33.783 80.8584 33.3841 79.8506 32.8662C78.8568 32.3483 77.9399 31.7184 77.1001 30.9766C76.2603 30.2207 75.5394 29.3739 74.9375 28.436C74.3496 27.4982 73.8877 26.4764 73.5518 25.3706C73.2158 24.2508 73.0479 23.068 73.0479 21.8223C73.0479 20.5765 73.2158 19.4007 73.5518 18.2949C73.8877 17.1751 74.3496 16.1463 74.9375 15.2085C75.5394 14.2707 76.2603 13.4308 77.1001 12.689C77.9399 11.9331 78.8568 11.2962 79.8506 10.7783C80.8584 10.2604 81.9292 9.86149 83.063 9.58154C84.1968 9.3016 85.3656 9.16162 86.5693 9.16162C87.7731 9.16162 88.9419 9.3016 90.0757 9.58154C91.2235 9.86149 92.2943 10.2604 93.2881 10.7783C94.2959 11.2962 95.2197 11.9331 96.0596 12.689C96.8994 13.4308 97.6133 14.2707 98.2012 15.2085C98.8031 16.1463 99.272 17.1751 99.6079 18.2949C99.9438 19.4007 100.112 20.5765 100.112 21.8223ZM92.8892 21.8223C92.8892 21.1504 92.8472 20.4435 92.7632 19.7017C92.6932 18.9458 92.5672 18.2109 92.3853 17.4971C92.2033 16.7692 91.9513 16.0763 91.6294 15.4185C91.3215 14.7466 90.9365 14.1657 90.4746 13.6758C90.0127 13.1719 89.4598 12.7729 88.8159 12.479C88.172 12.1711 87.4232 12.0171 86.5693 12.0171C85.7575 12.0171 85.0366 12.1711 84.4067 12.479C83.7769 12.7869 83.224 13.1999 82.748 13.7178C82.2861 14.2217 81.8942 14.8096 81.5723 15.4814C81.2643 16.1533 81.0124 16.8532 80.8164 17.5811C80.6204 18.2949 80.4805 19.0228 80.3965 19.7646C80.3125 20.4925 80.2705 21.1784 80.2705 21.8223C80.2705 22.4661 80.3125 23.159 80.3965 23.9009C80.4805 24.6287 80.6204 25.3566 80.8164 26.0845C81.0124 26.8123 81.2643 27.5122 81.5723 28.1841C81.8942 28.842 82.2861 29.4299 82.748 29.9478C83.224 30.4517 83.7769 30.8576 84.4067 31.1655C85.0366 31.4735 85.7575 31.6274 86.5693 31.6274C87.4092 31.6274 88.151 31.4805 88.7949 31.1865C89.4388 30.8786 89.9917 30.4727 90.4536 29.9688C90.9295 29.4648 91.3215 28.884 91.6294 28.2261C91.9373 27.5682 92.1823 26.8753 92.3643 26.1475C92.5602 25.4196 92.6932 24.6847 92.7632 23.9429C92.8472 23.201 92.8892 22.4941 92.8892 21.8223ZM129.401 20.1006C129.401 21.7383 129.198 23.446 128.792 25.2236C128.401 27.0013 127.848 28.744 127.134 30.4517C126.42 32.1593 125.566 33.762 124.572 35.2598C123.578 36.7715 122.487 38.0732 121.297 39.165L118.63 37.7163C119.008 37.0164 119.365 36.2326 119.701 35.3647C120.037 34.4969 120.338 33.5801 120.604 32.6143C120.884 31.6344 121.129 30.6266 121.339 29.5908C121.563 28.555 121.745 27.5332 121.885 26.5254C122.039 25.5036 122.151 24.5168 122.221 23.5649C122.305 22.5991 122.347 21.7033 122.347 20.8774C122.347 20.3315 122.326 19.7507 122.284 19.1348C122.242 18.5049 122.151 17.882 122.011 17.2661C121.885 16.6362 121.71 16.0343 121.486 15.4604C121.262 14.8866 120.961 14.3826 120.583 13.9487C120.219 13.5148 119.771 13.1649 119.239 12.8989C118.721 12.633 118.105 12.5 117.392 12.5C116.692 12.5 116.069 12.661 115.523 12.9829C114.977 13.2909 114.494 13.7038 114.074 14.2217C113.654 14.7256 113.29 15.3065 112.982 15.9644C112.688 16.6222 112.444 17.3011 112.248 18.001C112.066 18.6868 111.933 19.3657 111.849 20.0376C111.765 20.7095 111.723 21.3114 111.723 21.8433V34H104.605V9.74951H107.334L110.589 15.3975C110.981 14.4596 111.471 13.6058 112.059 12.8359C112.646 12.0661 113.311 11.4082 114.053 10.8623C114.795 10.3164 115.614 9.89648 116.51 9.60254C117.42 9.30859 118.399 9.16162 119.449 9.16162C121.129 9.16162 122.592 9.43457 123.837 9.98047C125.083 10.5264 126.119 11.2892 126.945 12.269C127.771 13.2349 128.387 14.3896 128.792 15.7334C129.198 17.0632 129.401 18.5189 129.401 20.1006ZM158.502 31.0815C158.502 33.0132 158.215 34.8328 157.641 36.5405C157.067 38.2482 156.234 39.7389 155.143 41.0127C154.051 42.3005 152.707 43.3153 151.111 44.0571C149.53 44.813 147.724 45.1909 145.694 45.1909C144.575 45.1909 143.441 45.0649 142.293 44.813C141.159 44.561 140.081 44.1691 139.06 43.6372C138.052 43.1193 137.142 42.4544 136.33 41.6426C135.532 40.8447 134.902 39.8999 134.44 38.8081L137.506 37.6533C137.772 38.3392 138.115 38.9691 138.535 39.543C138.969 40.1169 139.465 40.6068 140.025 41.0127C140.585 41.4326 141.201 41.7546 141.873 41.9785C142.545 42.2165 143.252 42.3354 143.994 42.3354C145.393 42.3354 146.562 42.0485 147.5 41.4746C148.452 40.9007 149.215 40.1519 149.789 39.228C150.362 38.3042 150.775 37.2544 151.027 36.0786C151.279 34.9168 151.405 33.734 151.405 32.5303V31.1025C150.565 32.2503 149.551 33.1042 148.361 33.6641C147.185 34.21 145.89 34.4829 144.477 34.4829C142.629 34.4829 140.977 34.154 139.521 33.4961C138.066 32.8382 136.834 31.9424 135.826 30.8086C134.818 29.6608 134.049 28.3171 133.517 26.7773C132.985 25.2376 132.719 23.5859 132.719 21.8223C132.719 20.0586 132.985 18.4069 133.517 16.8672C134.049 15.3275 134.818 13.9907 135.826 12.8569C136.834 11.7091 138.066 10.8063 139.521 10.1484C140.977 9.49056 142.629 9.16162 144.477 9.16162C145.414 9.16162 146.303 9.3016 147.143 9.58154C147.997 9.86149 148.774 10.2604 149.474 10.7783C150.188 11.2822 150.81 11.8981 151.342 12.626C151.888 13.3398 152.315 14.1377 152.623 15.0195L155.772 9.74951H158.502V31.0815ZM151.363 21.8223C151.363 21.1924 151.328 20.5275 151.258 19.8276C151.202 19.1278 151.097 18.4349 150.943 17.749C150.789 17.0632 150.572 16.4123 150.292 15.7964C150.027 15.1665 149.677 14.6136 149.243 14.1377C148.823 13.6478 148.312 13.2629 147.71 12.9829C147.108 12.703 146.408 12.563 145.61 12.563C144.812 12.563 144.12 12.71 143.532 13.0039C142.944 13.2839 142.44 13.6688 142.02 14.1587C141.6 14.6346 141.25 15.1875 140.97 15.8174C140.704 16.4473 140.494 17.1051 140.34 17.791C140.186 18.4769 140.074 19.1698 140.004 19.8696C139.948 20.5555 139.92 21.2064 139.92 21.8223C139.92 22.4382 139.948 23.096 140.004 23.7959C140.074 24.4958 140.186 25.1886 140.34 25.8745C140.494 26.5604 140.704 27.2183 140.97 27.8481C141.25 28.478 141.6 29.0379 142.02 29.5278C142.44 30.0037 142.944 30.3887 143.532 30.6826C144.12 30.9626 144.812 31.1025 145.61 31.1025C146.338 31.1025 146.982 30.9556 147.542 30.6616C148.116 30.3537 148.613 29.9478 149.033 29.4438C149.467 28.9399 149.831 28.366 150.125 27.7222C150.418 27.0783 150.656 26.4134 150.838 25.7275C151.02 25.0417 151.153 24.3628 151.237 23.6909C151.321 23.005 151.363 22.3822 151.363 21.8223ZM190.059 21.8223C190.059 23.082 189.891 24.2648 189.555 25.3706C189.219 26.4764 188.75 27.4982 188.148 28.436C187.561 29.3739 186.847 30.2207 186.007 30.9766C185.167 31.7184 184.243 32.3483 183.235 32.8662C182.242 33.3841 181.171 33.783 180.023 34.063C178.889 34.3429 177.72 34.4829 176.517 34.4829C175.313 34.4829 174.144 34.3429 173.01 34.063C171.876 33.783 170.806 33.3841 169.798 32.8662C168.804 32.3483 167.887 31.7184 167.047 30.9766C166.208 30.2207 165.487 29.3739 164.885 28.436C164.297 27.4982 163.835 26.4764 163.499 25.3706C163.163 24.2508 162.995 23.068 162.995 21.8223C162.995 20.5765 163.163 19.4007 163.499 18.2949C163.835 17.1751 164.297 16.1463 164.885 15.2085C165.487 14.2707 166.208 13.4308 167.047 12.689C167.887 11.9331 168.804 11.2962 169.798 10.7783C170.806 10.2604 171.876 9.86149 173.01 9.58154C174.144 9.3016 175.313 9.16162 176.517 9.16162C177.72 9.16162 178.889 9.3016 180.023 9.58154C181.171 9.86149 182.242 10.2604 183.235 10.7783C184.243 11.2962 185.167 11.9331 186.007 12.689C186.847 13.4308 187.561 14.2707 188.148 15.2085C188.75 16.1463 189.219 17.1751 189.555 18.2949C189.891 19.4007 190.059 20.5765 190.059 21.8223ZM182.836 21.8223C182.836 21.1504 182.794 20.4435 182.71 19.7017C182.64 18.9458 182.514 18.2109 182.333 17.4971C182.151 16.7692 181.899 16.0763 181.577 15.4185C181.269 14.7466 180.884 14.1657 180.422 13.6758C179.96 13.1719 179.407 12.7729 178.763 12.479C178.119 12.1711 177.37 12.0171 176.517 12.0171C175.705 12.0171 174.984 12.1711 174.354 12.479C173.724 12.7869 173.171 13.1999 172.695 13.7178C172.233 14.2217 171.841 14.8096 171.52 15.4814C171.212 16.1533 170.96 16.8532 170.764 17.5811C170.568 18.2949 170.428 19.0228 170.344 19.7646C170.26 20.4925 170.218 21.1784 170.218 21.8223C170.218 22.4661 170.26 23.159 170.344 23.9009C170.428 24.6287 170.568 25.3566 170.764 26.0845C170.96 26.8123 171.212 27.5122 171.52 28.1841C171.841 28.842 172.233 29.4299 172.695 29.9478C173.171 30.4517 173.724 30.8576 174.354 31.1655C174.984 31.4735 175.705 31.6274 176.517 31.6274C177.356 31.6274 178.098 31.4805 178.742 31.1865C179.386 30.8786 179.939 30.4727 180.401 29.9688C180.877 29.4648 181.269 28.884 181.577 28.2261C181.885 27.5682 182.13 26.8753 182.312 26.1475C182.507 25.4196 182.64 24.6847 182.71 23.9429C182.794 23.201 182.836 22.4941 182.836 21.8223Z" fill="white"/>
</svg>